<?xml version="1.0" encoding="UTF-8"?>
<svg version="1.1" xmlns="http://www.w3.org/2000/svg" width="430" height="421">
<path d="M0 0 C141.9 0 283.8 0 430 0 C430 138.93 430 277.86 430 421 C288.1 421 146.2 421 0 421 C0 282.07 0 143.14 0 0 Z " fill="#FE4A3F" transform="translate(0,0)"/>
<path d="M0 0 C8.70113334 -0.06942477 17.40217176 -0.12277271 26.10352135 -0.15543652 C30.14365781 -0.17111131 34.18360519 -0.19238225 38.22363281 -0.22631836 C42.12045787 -0.25884776 46.01710074 -0.27683934 49.91405106 -0.28463173 C51.40286758 -0.29018685 52.89167382 -0.30103436 54.38041306 -0.31719017 C56.46134966 -0.33888007 58.54152765 -0.34197061 60.62255859 -0.34057617 C62.40126846 -0.35056892 62.40126846 -0.35056892 64.21591187 -0.36076355 C65.13466095 -0.24171158 66.05341003 -0.12265961 67 0 C71.30056437 6.45084656 71.37974743 15.230978 72.0625 22.8125 C72.14048828 23.59302734 72.21847656 24.37355469 72.29882812 25.17773438 C74.15126009 45.00334926 74.16369907 64.89831064 74.16725707 84.79100466 C74.167979 87.07143034 74.17013449 89.35185038 74.17275429 91.63227463 C74.18196004 99.67005533 74.18609634 107.70781968 74.18530273 115.74560547 C74.18477282 122.29250561 74.19177265 128.83934562 74.20581055 135.38623047 C74.33706427 198.16724778 74.33706427 198.16724778 73.17578125 223.7734375 C73.14110434 224.58859455 73.10642742 225.4037516 73.07069969 226.24361038 C72.66465482 235.35681949 71.79711267 244.35123248 70.55151367 253.38916016 C70.42990781 254.28706457 70.30830194 255.18496899 70.18301105 256.11008263 C70.05999213 256.95036821 69.93697321 257.7906538 69.81022644 258.65640259 C69.70250003 259.39923304 69.59477362 260.14206348 69.48378277 260.90740395 C68.95266812 263.20473344 68.22972678 264.98853548 67 267 C64.79833984 267.79077148 64.79833984 267.79077148 62.0859375 268.18359375 C61.09561523 268.33038574 60.10529297 268.47717773 59.08496094 268.62841797 C54.26976902 269.20840547 49.4608344 269.69122211 44.625 270.0625 C43.58045654 270.14483887 42.53591309 270.22717773 41.4597168 270.31201172 C21.61745083 271.83082101 1.89144071 272.13554289 -18 272 C-18.48603703 269.56370116 -18.96385629 267.12621435 -19.4375 264.6875 C-19.57220703 264.01654297 -19.70691406 263.34558594 -19.84570312 262.65429688 C-21.82927745 252.34938636 -22.16347895 242.11701127 -22.13037109 231.63964844 C-22.12502583 229.63468808 -22.13034292 227.62995349 -22.13671875 225.625 C-22.12951165 218.31700449 -21.86305043 211.10338853 -21.24023438 203.82226562 C-20.94497379 200.35355392 -20.76413051 196.91813851 -20.6875 193.4375 C-20.65011719 192.30183594 -20.61273438 191.16617188 -20.57421875 189.99609375 C-21.10023351 186.2946871 -22.078091 185.25667578 -25 183 C-28.76857787 180.59229747 -31.57315111 180.84657192 -35.87890625 181.46875 C-38.99622009 182.24951369 -40.23900036 183.32328055 -42 186 C-46.44656959 197.46746894 -45.18629218 210.97712322 -45.18530273 223.06713867 C-45.18747707 226.0312361 -45.20564864 228.99495307 -45.22460938 231.95898438 C-45.25477742 242.5501783 -44.81782048 252.87691949 -43.4309082 263.38061523 C-43.08208826 266.31050515 -42.90947617 269.0577965 -43 272 C-66.35581611 272.21114437 -90.03816143 272.38823848 -113.3125 270.125 C-114.41247314 270.02566162 -114.41247314 270.02566162 -115.53466797 269.92431641 C-119.67784373 269.45370623 -122.67845078 268.55456207 -126 266 C-129.88718775 256.86510878 -129.14994298 245.61783742 -129.14526367 235.84741211 C-129.1485713 234.79714592 -129.15187893 233.74687973 -129.15528679 232.66478729 C-129.16461786 229.20229536 -129.16659506 225.73984735 -129.16796875 222.27734375 C-129.17196179 219.80721505 -129.17615231 217.33708667 -129.18052673 214.86695862 C-129.19094302 207.575032 -129.19087833 200.28312952 -129.18809986 192.99119949 C-129.18749999 190.93748198 -129.18744952 188.88376519 -129.18758392 186.83004761 C-129.18934166 151.04628579 -129.02594452 115.27449487 -128.125 79.5 C-128.10521969 78.69368511 -128.08543938 77.88737022 -128.06505966 77.05662155 C-127.44971193 52.01734015 -126.30181219 27.0122443 -125 2 C-92.66076349 1.18886966 -60.34918538 0.86260474 -28 1 C-29.72806738 13.3827564 -31.906187 25.66388926 -36.1875 37.4375 C-37.40245723 41.2692882 -37.67246962 45.00412932 -38 49 C-38.33 49.33 -38.66 49.66 -39 50 C-39.31633826 52.84666271 -39.5733202 55.67641396 -39.7890625 58.53125 C-39.89037979 59.82887268 -39.89037979 59.82887268 -39.9937439 61.15270996 C-40.13561141 62.99192163 -40.27499047 64.83132665 -40.41210938 66.67089844 C-40.62207354 69.46111028 -40.84572281 72.24999495 -41.0703125 75.0390625 C-41.20657492 76.82806078 -41.34201659 78.6171218 -41.4765625 80.40625 C-41.54420807 81.23161255 -41.61185364 82.0569751 -41.68154907 82.90734863 C-42.56613243 93.10345812 -42.56613243 93.10345812 -38.5625 102 C-34.44564728 105.21315334 -31.13364588 105.54298178 -26 105 C-21.74710627 103.20433376 -19.99777661 101.10702311 -18 97 C-17.63765426 94.26740651 -17.4223153 91.72717904 -17.33984375 88.98828125 C-17.30443985 88.22001511 -17.26903595 87.45174896 -17.2325592 86.66020203 C-17.12119926 84.21132292 -17.02798061 81.76223244 -16.9375 79.3125 C-16.19705633 60.58132664 -16.19705633 60.58132664 -14.49731445 53.28833008 C-13.72994189 49.75736149 -13.37427057 46.19040179 -12.96191406 42.60351562 C-11.48736336 29.84117247 -8.86679045 18.75395703 -3.359375 7.125 C-3.03565918 6.43664062 -2.71194336 5.74828125 -2.37841797 5.0390625 C-1.58768804 3.35839667 -0.7941353 1.67905943 0 0 Z " fill="#FFFEFE" transform="translate(241,71)"/>
<path d="M0 0 C141.9 0 283.8 0 430 0 C430 138.93 430 277.86 430 421 C288.1 421 146.2 421 0 421 C0 363.91 0 306.82 0 248 C0.33 248 0.66 248 1 248 C1.10957031 248.88300781 1.21914063 249.76601562 1.33203125 250.67578125 C2.70744435 261.08642837 4.79813132 270.37071761 9 280 C9.45428264 281.49500286 9.89010388 282.99567697 10.3125 284.5 C13.1448744 294.24933084 17.03693345 304.13738116 22 313 C22.66 313.33 23.32 313.66 24 314 C24.4651442 315.96025054 24.92936494 317.92072973 25.38671875 319.8828125 C27.05668697 325.64792571 31.35385726 329.51494248 35.609375 333.484375 C37 335 37 335 37 337 C37.99 337.33 38.98 337.66 40 338 C41.01529541 340.32671865 42.01488198 342.6603447 43 345 C43.99 345.66 44.98 346.32 46 347 C46.12375 347.66 46.2475 348.32 46.375 349 C46.58125 349.66 46.7875 350.32 47 351 C49.88719595 352.48261414 52.83976631 353.29772585 56 354 C56.495 357.465 56.495 357.465 57 361 C58.0828125 360.5978125 58.0828125 360.5978125 59.1875 360.1875 C60.5796875 360.0946875 60.5796875 360.0946875 62 360 C63.66666667 361.66666667 65.33333333 363.33333333 67 365 C69.02176012 365.76452014 69.02176012 365.76452014 71.25 366.3125 C78.20386268 368.34070995 82.69001226 373.63501255 87.625 378.6875 C93.36518493 384.27662743 99.51741313 387.59369824 107.1875 390 C110 391 110 391 111.875 392.4375 C114.49064465 394.36076812 117.11843905 395.18093917 120.1953125 396.15625 C122 397 122 397 124 400 C126.07883627 400.69419897 126.07883627 400.69419897 128.5 401 C132.15419625 401.62658408 135.59396095 402.43103702 139.125 403.5625 C143.43248305 404.91666924 147.51987848 405.51125947 152 406 C152.33 406.33 152.66 406.66 153 407 C154.56339756 407.20393774 156.13476112 407.34750158 157.70703125 407.46484375 C159.1775293 407.58182617 159.1775293 407.58182617 160.67773438 407.70117188 C162.72455949 407.85548081 164.77143258 408.00915513 166.81835938 408.16210938 C171.8449345 408.56280201 176.7303936 409.10077868 181.68359375 410.0546875 C188.77025847 411.29420434 195.81314523 411.26528956 202.97998047 411.20581055 C205.23286455 411.18763822 207.48533158 411.1853013 209.73828125 411.18554688 C226.11881975 411.70284979 226.11881975 411.70284979 242 409 C243.56118428 408.93259135 245.1250252 408.91485544 246.6875 408.9375 C247.49574219 408.94652344 248.30398437 408.95554687 249.13671875 408.96484375 C250.05904297 408.98224609 250.05904297 408.98224609 251 409 C251 409.99 251 410.98 251 412 C250.0821875 412.04898437 249.164375 412.09796875 248.21875 412.1484375 C246.9915625 412.22320312 245.764375 412.29796875 244.5 412.375 C243.2934375 412.44460938 242.086875 412.51421875 240.84375 412.5859375 C237.00318413 412.89361676 237.00318413 412.89361676 233.41015625 414 C228.47828751 415.26207171 223.66344803 415.35048897 218.59375 415.4140625 C217.6284436 415.43342865 216.66313721 415.4527948 215.6685791 415.4727478 C212.61247343 415.53210018 209.55632918 415.57875038 206.5 415.625 C204.41665105 415.66322064 202.33331722 415.7022747 200.25 415.7421875 C195.1667907 415.83776489 190.08350753 415.92195813 185 416 C185 415.34 185 414.68 185 414 C184.34515625 413.98018066 183.6903125 413.96036133 183.015625 413.93994141 C180.01005552 413.84389478 177.00510669 413.73454216 174 413.625 C172.97003906 413.5940625 171.94007813 413.563125 170.87890625 413.53125 C164.93798451 413.3042084 159.70792747 412.65536028 154 411 C152.93394531 410.7421875 151.86789063 410.484375 150.76953125 410.21875 C149.79371094 409.9815625 148.81789062 409.744375 147.8125 409.5 C146.33716797 409.14421875 146.33716797 409.14421875 144.83203125 408.78125 C142 408 142 408 139.4375 406.9140625 C136.82993082 405.93622406 134.9548831 405.79239155 132.1875 405.875 C131.39730469 405.89304687 130.60710937 405.91109375 129.79296875 405.9296875 C129.20128906 405.95289063 128.60960937 405.97609375 128 406 C137.03690994 409.86175978 146.05577269 413.07194011 155.9296875 413.69140625 C158.48452711 414.07222196 160.60585617 415.03800263 163 416 C178.62241483 419.59974318 195.32726337 419.07902798 211.25 419.125 C212.39944092 419.12967285 213.54888184 419.1343457 214.7331543 419.13916016 C216.32703979 419.13601807 216.32703979 419.13601807 217.953125 419.1328125 C218.90348633 419.13168457 219.85384766 419.13055664 220.83300781 419.12939453 C222.97944583 419.24178822 222.97944583 419.24178822 224 418 C225.68608966 417.92794489 227.37500659 417.91613932 229.0625 417.9375 C229.98160156 417.94652344 230.90070313 417.95554687 231.84765625 417.96484375 C232.55792969 417.97644531 233.26820313 417.98804688 234 418 C234 417.34 234 416.68 234 416 C234.81984375 415.93941406 235.6396875 415.87882812 236.484375 415.81640625 C238.10085937 415.69072266 238.10085937 415.69072266 239.75 415.5625 C240.81734375 415.48128906 241.8846875 415.40007812 242.984375 415.31640625 C245.83563645 415.09372466 245.83563645 415.09372466 247.89453125 414.50488281 C250.1866517 413.95524168 252.3517507 413.75999165 254.703125 413.60546875 C256.05083984 413.50202148 256.05083984 413.50202148 257.42578125 413.39648438 C259.29222097 413.258373 261.15945599 413.13057906 263.02734375 413.01367188 C268.44407355 412.57708809 272.498834 411.63195001 277.24853516 408.97387695 C279.59119896 407.67127228 282.02458725 406.84723168 284.5625 406 C287.87529059 404.84075239 290.86973424 403.62613533 293.875 401.8125 C297 400 297 400 299.8125 399.5 C300.534375 399.335 301.25625 399.17 302 399 C302.309375 398.360625 302.61875 397.72125 302.9375 397.0625 C303.288125 396.381875 303.63875 395.70125 304 395 C304.84820312 394.74734375 305.69640625 394.4946875 306.5703125 394.234375 C311.03181219 392.62864163 314.22919384 390.08888996 317.9375 387.1875 C319.30020179 386.13856969 320.66347852 385.09038586 322.02734375 384.04296875 C322.68887451 383.53419189 323.35040527 383.02541504 324.03198242 382.5012207 C332.2316319 376.24645769 332.2316319 376.24645769 336.3125 374.9375 C337.6428125 374.4734375 337.6428125 374.4734375 339 374 C339.26425781 373.40445312 339.52851563 372.80890625 339.80078125 372.1953125 C341.51431886 369.05847818 343.87852248 367.83868806 346.875 365.9375 C351.06360784 363.28694868 351.06360784 363.28694868 355.0703125 360.37890625 C359.98724497 356.86538973 364.81213213 356.65710523 370.671875 356.34375 C371.44015625 356.2303125 372.2084375 356.116875 373 356 C374.28580309 353.42839382 374.39503249 351.10393878 374.75 348.25 C375.63585245 342.67706257 377.22112642 340.22873948 381 336 C382.18657799 333.26752814 383.14341334 330.50755818 384.08984375 327.68359375 C384.85551979 325.4259996 385.70525187 323.29353813 386.6875 321.125 C388.11772532 317.71970163 389 314.69569668 389 311 C389.99 310.34 390.98 309.68 392 309 C392.55150806 306.49399178 392.55150806 306.49399178 392.75 303.5 C393.63120979 296.65543088 395.84380818 290.84368019 398.45629883 284.48486328 C400.67598008 279.02347237 402.14974546 273.85730905 403 268 C403.66 268 404.32 268 405 268 C405.12846313 267.03175293 405.12846313 267.03175293 405.25952148 266.04394531 C405.64982625 263.11231113 406.04362582 260.18115667 406.4375 257.25 C406.57220703 256.23421875 406.70691406 255.2184375 406.84570312 254.171875 C406.97783203 253.1921875 407.10996094 252.2125 407.24609375 251.203125 C407.36654053 250.30239258 407.4869873 249.40166016 407.61108398 248.47363281 C408 246 408 246 408.53662109 243.94360352 C409.41601218 240.25507221 409.18460813 236.46139504 409.1875 232.6875 C409.19974609 231.85798828 409.21199219 231.02847656 409.22460938 230.17382812 C409.23350877 226.41531798 409.1076844 223.35723871 408.015625 219.734375 C406.18017215 212.98555608 406.60070707 205.91926436 406.52148438 198.95898438 C406.36765429 192.2017166 405.69673103 187.18541345 403 181 C402.51475187 178.95254997 402.09013887 176.88899294 401.75 174.8125 C401.49476563 173.33716797 401.49476563 173.33716797 401.234375 171.83203125 C401 169 401 169 401.640625 166.44921875 C402.2773842 163.92531141 402.2773842 163.92531141 400.65234375 161.7890625 C398.29830839 157.81558438 398.09845498 153.90874164 397.5625 149.375 C395.70207803 134.55444421 395.70207803 134.55444421 387 123 C385.51922264 121.51922264 385.56304263 119.98368085 385.1875 117.9375 C384.13668884 113.11435237 382.41308609 109.28287502 380 105 C379.37351562 103.87722656 378.74703125 102.75445312 378.1015625 101.59765625 C374.16208664 94.56351635 374.16208664 94.56351635 369.75 87.8203125 C368 85 368 85 368 81 C367.34 81.33 366.68 81.66 366 82 C366 83.32 366 84.64 366 86 C365.01 86 364.02 86 363 86 C362.814375 85.113125 362.62875 84.22625 362.4375 83.3125 C360.79369247 79.5245957 359.36027879 78.46372159 355.94921875 76.37109375 C351.76504287 73.42791593 348.4832482 69.45817002 345.10644531 65.64892578 C340.74020762 60.74358819 336.36672398 56.40728192 331.046875 52.51171875 C329.09864938 51.07285746 327.3062073 49.54900147 325.5 47.9375 C322.21266223 45.06395299 318.65879359 42.74452858 314.99609375 40.37890625 C313 39 313 39 310.875 36.8125 C308.2221044 34.24803426 305.43312671 33.32043335 302 32 C302.60585938 32.4125 303.21171875 32.825 303.8359375 33.25 C310.11347833 37.5766743 316.10282951 42.16933906 322 47 C317.15696599 48.61434467 313.47295229 46.10526954 309 44 C306.91124166 42.8220685 304.82813279 41.63407768 302.75 40.4375 C296.96522834 37.22297641 291.60411645 35.74836732 285.09375 34.703125 C282 34 282 34 279.66357422 32.58154297 C276.90351286 30.9427091 274.3413527 29.97067288 271.2890625 28.9921875 C270.20882813 28.64542969 269.12859375 28.29867188 268.015625 27.94140625 C266.89671875 27.58949219 265.7778125 27.23757812 264.625 26.875 C263.51382812 26.51535156 262.40265625 26.15570312 261.2578125 25.78515625 C255.81999688 24.05670771 250.67120551 22.61350772 245 22 C243.66582706 21.67004325 242.33231815 21.33736811 241 21 C239.62737586 20.85116124 238.25177565 20.72862827 236.875 20.625 C228.85411339 19.88814144 220.93118678 18.37370229 213 17 C213.33 16.01 213.66 15.02 214 14 C214.99 14 215.98 14 217 14 C217 14.66 217 15.32 217 16 C217.66 16 218.32 16 219 16 C218.67 15.34 218.34 14.68 218 14 C215.36 14 212.72 14 210 14 C210 14.66 210 15.32 210 16 C208.7625 16.04125 207.525 16.0825 206.25 16.125 C205.55390625 16.14820312 204.8578125 16.17140625 204.140625 16.1953125 C201.67517021 15.97036225 200.20175863 15.10087932 198 14 C195.41467299 13.54935368 195.41467299 13.54935368 192.75 13.375 C191.85796875 13.30023438 190.9659375 13.22546875 190.046875 13.1484375 C189.03367188 13.07496094 189.03367188 13.07496094 188 13 C188 12.67 188 12.34 188 12 C192.29 11.34 196.58 10.68 201 10 C199.79882186 8.56756978 199.79882186 8.56756978 196.29394531 8.93066406 C194.63857541 8.95263367 192.98328836 8.98147176 191.328125 9.015625 C190.01627228 9.04036896 190.01627228 9.04036896 188.67791748 9.06561279 C186.82167598 9.10319322 184.96549276 9.14374931 183.109375 9.18701172 C180.27611055 9.24942482 177.44301945 9.29105695 174.609375 9.33203125 C172.80726327 9.3711074 171.00517809 9.41143204 169.203125 9.453125 C168.35711731 9.46265198 167.51110962 9.47217896 166.63946533 9.48199463 C161.86583048 9.61984523 158.99790681 10.15524558 155 13 C152.4140625 13.30078125 152.4140625 13.30078125 149.625 13.3125 C141.74251138 13.74495573 135.11407838 16.82198958 128 20 C129.98 20 131.96 20 134 20 C133.875 21.875 133.875 21.875 133 24 C130 25.125 130 25.125 127 26 C126.67 26.66 126.34 27.32 126 28 C127.051875 27.319375 127.051875 27.319375 128.125 26.625 C131.78455913 24.55655353 135.1052356 22.70082667 139.375 23.375 C140.179375 23.684375 140.179375 23.684375 141 24 C137.08560417 26.60463601 133.39304166 27.87256545 128.875 29.125 C122.26619084 31.06625016 116.09220117 33.60336882 109.875 36.5625 C109.08206543 36.93842285 108.28913086 37.3143457 107.47216797 37.70166016 C104.04518135 39.36807346 100.77137618 41.07524454 97.625 43.23046875 C94.97614988 45.01607753 93.1416424 45.63039501 90 46 C89.67 46.99 89.34 47.98 89 49 C87.68 49 86.36 49 85 49 C84.835 49.7425 84.67 50.485 84.5 51.25 C81.91086502 55.99674746 77.11680588 57.35575473 72.125 58.875 C71.42375 58.91625 70.7225 58.9575 70 59 C69.34 58.34 68.68 57.68 68 57 C68.66 56.01 69.32 55.02 70 54 C66.97763043 55.73674754 66.97763043 55.73674754 64 58 C63.86078125 58.63421875 63.7215625 59.2684375 63.578125 59.921875 C62.75704201 62.87333549 61.14146268 63.73282556 58.6875 65.5 C55.51201255 67.80944542 52.72844702 70.17451617 50 73 C49.154375 73.804375 48.30875 74.60875 47.4375 75.4375 C44.92650435 77.8906405 44.92650435 77.8906405 43.3125 80.8125 C42.879375 81.534375 42.44625 82.25625 42 83 C41.34 83 40.68 83 40 83 C39.79375 83.825 39.5875 84.65 39.375 85.5 C37.85080335 89.3797733 35.83465713 91.93288232 33.14453125 95.0703125 C31.75386695 96.95467719 31.75386695 96.95467719 32.32421875 99.2421875 C32.54722656 99.82226562 32.77023438 100.40234375 33 101 C32.01 101 31.02 101 30 101 C29.7525 101.845625 29.505 102.69125 29.25 103.5625 C28 107 28 107 26 110.3125 C23.6009119 114.30501229 22.7841072 118.45011483 22 123 C22.66 123 23.32 123 24 123 C25.36176922 121.35648543 26.68962066 119.68477344 28 118 C29.66666667 116.33333333 31.33333333 114.66666667 33 113 C33.721875 112.071875 34.44375 111.14375 35.1875 110.1875 C35.785625 109.465625 36.38375 108.74375 37 108 C37.66 108 38.32 108 39 108 C39 107.34 39 106.68 39 106 C40.65 106.33 42.3 106.66 44 107 C42.4467831 110.29961999 40.55047943 113.25820313 38.5625 116.3125 C34.66465488 122.50249152 31.42188978 128.97620492 28.25 135.5625 C27.79052979 136.50714111 27.33105957 137.45178223 26.85766602 138.42504883 C23.67861817 145.12609074 21.19923404 151.91936849 19 159 C15.1640625 158.2421875 15.1640625 158.2421875 13.6875 156.0625 C12.6869399 151.60545957 13.35548864 147.48545065 14 143 C12.00045254 142.95745644 9.99958364 142.95919217 8 143 C6.48877968 144.51122032 6.51761215 146.16984442 6.125 148.25 C5.32090916 152.03642774 4.20820594 154.77969967 2 158 C1.01 159.98 1.01 159.98 0 162 C0 108.54 0 55.08 0 0 Z " fill="#FFFDFD" transform="translate(0,0)"/>
<path d="M0 0 C0.99 0 1.98 0 3 0 C3.33 2.97 3.66 5.94 4 9 C3.34 9 2.68 9 2 9 C2 9.66 2 10.32 2 11 C2.9590625 11.1546875 2.9590625 11.1546875 3.9375 11.3125 C4.618125 11.539375 5.29875 11.76625 6 12 C7.12609446 15.37828337 6.5849884 16.62120301 5.5390625 19.8984375 C4.71343802 23.11717642 4.5521609 26.35944578 4.34375 29.66796875 C3.97918014 32.1412438 3.13288285 33.79509163 2 36 C2.29805007 38.19747131 2.29805007 38.19747131 3 40 C1.515 40.495 1.515 40.495 0 41 C-0.04898437 41.86882812 -0.09796875 42.73765625 -0.1484375 43.6328125 C-0.22320312 44.78523438 -0.29796875 45.93765625 -0.375 47.125 C-0.44460938 48.26195312 -0.51421875 49.39890625 -0.5859375 50.5703125 C-1.19550911 55.61940567 -2.97288743 60.06545831 -4.875 64.75 C-5.9467995 67.3916471 -7.01285777 70.0331798 -8.04296875 72.69140625 C-11.62641392 81.90401815 -11.62641392 81.90401815 -14 85 C-14.99 85 -15.98 85 -17 85 C-17.33 85.99 -17.66 86.98 -18 88 C-18.33 88 -18.66 88 -19 88 C-19 86.02 -19 84.04 -19 82 C-21.475 82.495 -21.475 82.495 -24 83 C-24 83.66 -24 84.32 -24 85 C-24.66 85 -25.32 85 -26 85 C-25.42105072 81.29472461 -24.24354904 78.04751381 -22.8828125 74.56640625 C-21.52857717 70.62953628 -20.57357787 66.58833878 -19.5559082 62.55444336 C-18.63859003 59.03405478 -17.58067221 55.89593918 -15.875 52.6875 C-13.08914951 46.96344781 -13.01223556 40.58292053 -12.43359375 34.3359375 C-11.97890937 29.46986958 -11.08341708 24.76157255 -10 20 C-9.66304231 18.33406231 -9.32885487 16.66755611 -9 15 C-8.67 15 -8.34 15 -8 15 C-8 18.3 -8 21.6 -8 25 C-7.34 25.33 -6.68 25.66 -6 26 C-6.04125 25.071875 -6.0825 24.14375 -6.125 23.1875 C-6 20 -6 20 -4 17 C-3.65246771 14.46156398 -3.65246771 14.46156398 -3.5625 11.6875 C-3.22760534 7.01137823 -2.46310101 3.96237988 0 0 Z " fill="#FF4E44" transform="translate(423,217)"/>
<path d="M0 0 C7.03125 4.19921875 7.03125 4.19921875 9 6 C9.28125 8.70703125 9.28125 8.70703125 9 11 C9.99 11 10.98 11 12 11 C11.67 19.91 11.34 28.82 11 38 C9.68 38 8.36 38 7 38 C6.7834375 38.928125 6.7834375 38.928125 6.5625 39.875 C6 42 6 42 5 44 C6.32 44.33 7.64 44.66 9 45 C9 45.66 9 46.32 9 47 C8.34 47 7.68 47 7 47 C7.16371094 47.56203125 7.32742187 48.1240625 7.49609375 48.703125 C8.02864997 51.13059056 8.09898681 53.26889681 8.0625 55.75 C8.05347656 56.54921875 8.04445313 57.3484375 8.03515625 58.171875 C8.02355469 58.77515625 8.01195312 59.3784375 8 60 C7.01 60 6.02 60 5 60 C3.31055164 50.91921505 2.75091024 42.23015944 3 33 C3.66 34.32 4.32 35.64 5 37 C4.855625 36.40574219 4.71125 35.81148437 4.5625 35.19921875 C3.10983712 28.71267548 2.7729855 22.63386814 3 16 C2.01 16 1.02 16 0 16 C0 10.72 0 5.44 0 0 Z " fill="#FFFBFB" transform="translate(0,185)"/>
<path d="M0 0 C2.31317961 0.30742903 4.62553352 0.62107702 6.9375 0.9375 C8.22527344 1.11152344 9.51304687 1.28554688 10.83984375 1.46484375 C14 2 14 2 15 3 C16.56339756 3.20393774 18.13476112 3.34750158 19.70703125 3.46484375 C20.68736328 3.54283203 21.66769531 3.62082031 22.67773438 3.70117188 C24.72455949 3.85548081 26.77143258 4.00915513 28.81835938 4.16210938 C33.8449345 4.56280201 38.7303936 5.10077868 43.68359375 6.0546875 C50.77025847 7.29420434 57.81314523 7.26528956 64.97998047 7.20581055 C67.23286455 7.18763822 69.48533158 7.1853013 71.73828125 7.18554688 C88.11881975 7.70284979 88.11881975 7.70284979 104 5 C105.56118428 4.93259135 107.1250252 4.91485544 108.6875 4.9375 C109.89986328 4.95103516 109.89986328 4.95103516 111.13671875 4.96484375 C112.05904297 4.98224609 112.05904297 4.98224609 113 5 C113 5.99 113 6.98 113 8 C112.0821875 8.04898437 111.164375 8.09796875 110.21875 8.1484375 C108.9915625 8.22320312 107.764375 8.29796875 106.5 8.375 C105.2934375 8.44460938 104.086875 8.51421875 102.84375 8.5859375 C99.00318413 8.89361676 99.00318413 8.89361676 95.41015625 10 C90.47828751 11.26207171 85.66344803 11.35048897 80.59375 11.4140625 C79.6284436 11.43342865 78.66313721 11.4527948 77.6685791 11.4727478 C74.61247343 11.53210018 71.55632918 11.57875038 68.5 11.625 C66.41665105 11.66322064 64.33331722 11.7022747 62.25 11.7421875 C57.1667907 11.83776489 52.08350753 11.92195813 47 12 C47 11.34 47 10.68 47 10 C46.34515625 9.98018066 45.6903125 9.96036133 45.015625 9.93994141 C42.01005552 9.84389478 39.00510669 9.73454216 36 9.625 C34.45505859 9.57859375 34.45505859 9.57859375 32.87890625 9.53125 C26.93798451 9.3042084 21.70792747 8.65536028 16 7 C14.40091797 6.61328125 14.40091797 6.61328125 12.76953125 6.21875 C11.79371094 5.9815625 10.81789062 5.744375 9.8125 5.5 C8.33716797 5.14421875 8.33716797 5.14421875 6.83203125 4.78125 C4.11836273 4.03265179 1.58938248 3.09823901 -1 2 C-0.67 1.34 -0.34 0.68 0 0 Z " fill="#FFF5F4" transform="translate(138,404)"/>
<path d="M0 0 C0.66 0.33 1.32 0.66 2 1 C1.01 1.99 0.02 2.98 -1 4 C-0.34 4.99 0.32 5.98 1 7 C-2.51160884 11.18738236 -6.13389115 15.13389115 -10 19 C-10.98613082 20.16078614 -11.9649127 21.32784284 -12.9375 22.5 C-14.8549471 24.79313012 -16.43197787 26.31928799 -18.875 28.125 C-23.08726855 31.40857942 -25.38855351 36.37034516 -27.97265625 40.94140625 C-30.01812867 44.02735018 -31.99809765 45.87213508 -35 48 C-36.32 47.34 -37.64 46.68 -39 46 C-37.53650125 41.47645842 -35.01661634 38.61993961 -32 35 C-30.6950516 32.2875382 -30.6950516 32.2875382 -30 30 C-29.34 30 -28.68 30 -28 30 C-27.773125 29.278125 -27.54625 28.55625 -27.3125 27.8125 C-25.72668125 24.41431697 -23.73876676 22.54769001 -21 20 C-20.21625 19.195625 -19.4325 18.39125 -18.625 17.5625 C-9.85365854 9 -9.85365854 9 -7 9 C-6.95875 8.2575 -6.9175 7.515 -6.875 6.75 C-5.65142617 2.90448224 -3.40653418 1.95694517 0 0 Z " fill="#FFDCDA" transform="translate(70,53)"/>
<path d="M0 0 C3.82064733 11.46194199 -1.64399128 25.2011612 -5.83203125 35.8125 C-7.07570723 39.20661237 -7.91177561 42.51423695 -8.59765625 46.0546875 C-9.16254508 48.78589757 -10.05894744 51.37849644 -11 54 C-12.5703125 52.3125 -12.5703125 52.3125 -14 50 C-13.7421875 47.625 -13.7421875 47.625 -12.875 45 C-12.57722656 44.04480469 -12.27945312 43.08960938 -11.97265625 42.10546875 C-11.65167969 41.08066406 -11.33070313 40.05585938 -11 39 C-10.42249323 36.77467391 -9.85952264 34.54551512 -9.3125 32.3125 C-9.06113281 31.29800781 -8.80976563 30.28351563 -8.55078125 29.23828125 C-8.36902344 28.49964844 -8.18726563 27.76101563 -8 27 C-7.34 27 -6.68 27 -6 27 C-5.91959473 26.35450195 -5.83918945 25.70900391 -5.75634766 25.04394531 C-5.38677583 22.11162218 -5.0060115 19.18085772 -4.625 16.25 C-4.43550781 14.72632813 -4.43550781 14.72632813 -4.2421875 13.171875 C-4.11328125 12.1921875 -3.984375 11.2125 -3.8515625 10.203125 C-3.73635254 9.30239258 -3.62114258 8.40166016 -3.50244141 7.47363281 C-2.92085736 4.61036287 -2.10029909 2.10029909 0 0 Z " fill="#FFECEB" transform="translate(411,241)"/>
<path d="M0 0 C0.66 0.33 1.32 0.66 2 1 C-1.52756993 8.97455967 -8.17634986 15.72717944 -15 21 C-19.28729606 24.84757339 -22.29999082 29.20508584 -25.44921875 33.98828125 C-25.96097656 34.65214844 -26.47273438 35.31601563 -27 36 C-27.66 36 -28.32 36 -29 36 C-27.53650125 31.47645842 -25.01661634 28.61993961 -22 25 C-20.6950516 22.2875382 -20.6950516 22.2875382 -20 20 C-19.34 20 -18.68 20 -18 20 C-17.773125 19.278125 -17.54625 18.55625 -17.3125 17.8125 C-15.72668125 14.41431697 -13.73876676 12.54769001 -11 10 C-10.195625 9.175 -9.39125 8.35 -8.5625 7.5 C-5.81915715 4.82356795 -2.97119711 2.41841625 0 0 Z " fill="#FF554A" transform="translate(60,63)"/>
<path d="M0 0 C0.66 0.33 1.32 0.66 2 1 C0.515 2.485 0.515 2.485 -1 4 C-0.01 5.485 -0.01 5.485 1 7 C-9.4809322 19.49788136 -9.4809322 19.49788136 -14 20 C-13.360625 19.113125 -12.72125 18.22625 -12.0625 17.3125 C-10.19170243 14.30788572 -9.40576034 12.4489629 -9 9 C-8.34 9 -7.68 9 -7 9 C-6.95875 8.2575 -6.9175 7.515 -6.875 6.75 C-5.65142617 2.90448224 -3.40653418 1.95694517 0 0 Z " fill="#FFEEED" transform="translate(70,53)"/>
<path d="M0 0 C0.65935547 0.98226562 0.65935547 0.98226562 1.33203125 1.984375 C1.88246094 2.64953125 2.43289062 3.3146875 3 4 C5.62625139 4.33425735 5.62625139 4.33425735 8 4 C6.68 4.33 5.36 4.66 4 5 C3.855625 5.61875 3.71125 6.2375 3.5625 6.875 C3 9 3 9 2 11 C3.32 11.33 4.64 11.66 6 12 C6 12.66 6 13.32 6 14 C5.34 14 4.68 14 4 14 C4.16371094 14.56203125 4.32742187 15.1240625 4.49609375 15.703125 C5.02864997 18.13059056 5.09898681 20.26889681 5.0625 22.75 C5.05347656 23.54921875 5.04445313 24.3484375 5.03515625 25.171875 C5.01775391 26.07679688 5.01775391 26.07679688 5 27 C4.01 27 3.02 27 2 27 C0.31055164 17.91921505 -0.24908976 9.23015944 0 0 Z " fill="#FFECEB" transform="translate(3,218)"/>
<path d="M0 0 C1.65 0.33 3.3 0.66 5 1 C3.54331217 3.96783129 1.98767914 6.86415313 0.375 9.75 C-0.07101563 10.54921875 -0.51703125 11.3484375 -0.9765625 12.171875 C-1.31429687 12.77515625 -1.65203125 13.3784375 -2 14 C-3.66666667 14 -5.33333333 14 -7 14 C-7.33 14.99 -7.66 15.98 -8 17 C-9 15 -9 15 -7.8125 11.1875 C-6.38846392 7.6012807 -4.71099444 4.79844588 -2 2 C-1.34 2 -0.68 2 0 2 C0 1.34 0 0.68 0 0 Z " fill="#FFDCDA" transform="translate(39,106)"/>
<path d="M0 0 C2.31317961 0.30742903 4.62553352 0.62107702 6.9375 0.9375 C8.22527344 1.11152344 9.51304687 1.28554688 10.83984375 1.46484375 C14 2 14 2 15 3 C17.18292774 3.23481693 19.37203174 3.41363323 21.5625 3.5625 C23.35880859 3.68818359 23.35880859 3.68818359 25.19140625 3.81640625 C26.11824219 3.87699219 27.04507813 3.93757813 28 4 C28 4.33 28 4.66 28 5 C24.7 5 21.4 5 18 5 C18 5.66 18 6.32 18 7 C11.31816637 5.9559635 5.2534035 4.5957524 -1 2 C-0.67 1.34 -0.34 0.68 0 0 Z " fill="#FFEAE9" transform="translate(138,404)"/>
<path d="M0 0 C0.25 7.625 0.25 7.625 -2 11 C-2.38499891 12.65549531 -2.72793135 14.3222433 -3 16 C-4.57421875 14.35546875 -4.57421875 14.35546875 -6 12 C-5.70703125 9.23828125 -5.70703125 9.23828125 -4.8125 6.3125 C-4.53019531 5.33925781 -4.24789063 4.36601562 -3.95703125 3.36328125 C-2.59504132 0 -2.59504132 0 0 0 Z " fill="#FFE5E3" transform="translate(403,279)"/>
<path d="M0 0 C2.85440587 0.14196516 5.70846196 0.28845826 8.5625 0.4375 C9.36236328 0.47681641 10.16222656 0.51613281 10.98632812 0.55664062 C15.71371506 0.80748156 20.32476901 1.25321814 25 2 C25 2.33 25 2.66 25 3 C21.95809137 3.05421223 18.91716001 3.09377548 15.875 3.125 C15.0190625 3.14175781 14.163125 3.15851562 13.28125 3.17578125 C8.43412707 3.21306681 4.55292095 2.89580643 0 1 C0 0.67 0 0.34 0 0 Z " fill="#FF827A" transform="translate(212,6)"/>
<path d="M0 0 C7.7113039 2.12060857 13.61532516 6.14020679 19 12 C19.66 12.66 20.32 13.32 21 14 C17.11951289 14 16.2339625 12.7936793 13.3125 10.3125 C10.10293581 7.65435873 6.93970676 5.22292834 3.375 3.0625 C2.26125 2.381875 1.1475 1.70125 0 1 C0 0.67 0 0.34 0 0 Z " fill="#FF7168" transform="translate(299,30)"/>
<path d="M0 0 C0.99 0.33 1.98 0.66 3 1 C0.02144422 5.00959432 -3.13802234 7.89362667 -7 11 C-7.66 11.66 -8.32 12.32 -9 13 C-9.66 12.34 -10.32 11.68 -11 11 C-10.37351563 10.45730469 -9.74703125 9.91460937 -9.1015625 9.35546875 C-8.28429688 8.64003906 -7.46703125 7.92460938 -6.625 7.1875 C-5.40683594 6.12595703 -5.40683594 6.12595703 -4.1640625 5.04296875 C-1.83816812 3.00018747 -1.83816812 3.00018747 0 0 Z " fill="#FFD3D0" transform="translate(55,73)"/>
<path d="M0 0 C1.21236328 0.01353516 1.21236328 0.01353516 2.44921875 0.02734375 C3.37154297 0.04474609 3.37154297 0.04474609 4.3125 0.0625 C4.3125 1.0525 4.3125 2.0425 4.3125 3.0625 C0.3525 3.0625 -3.6075 3.0625 -7.6875 3.0625 C-7.6875 2.4025 -7.6875 1.7425 -7.6875 1.0625 C-4.80538698 0.10179566 -2.98899956 -0.04331883 0 0 Z " fill="#FFE8E7" transform="translate(246.6875,408.9375)"/>
<path d="M0 0 C-5.13887901 3.32515701 -9.80154611 5.36461493 -16 5 C-15 3 -15 3 -13.00390625 2.18359375 C-12.19824219 1.93738281 -11.39257812 1.69117188 -10.5625 1.4375 C-3.0086865 -0.90260595 -3.0086865 -0.90260595 0 0 Z " fill="#FFE0DE" transform="translate(141,24)"/>
<path d="M0 0 C1.65 0 3.3 0 5 0 C3.99138318 2.60924787 3.33501908 3.79748847 0.90625 5.265625 C-0.28484375 5.75289062 -0.28484375 5.75289062 -1.5 6.25 C-2.2940625 6.58515625 -3.088125 6.9203125 -3.90625 7.265625 C-6 8 -6 8 -8 8 C-7.67 7.01 -7.34 6.02 -7 5 C-5 4.33333333 -3 3.66666667 -1 3 C-0.67 2.01 -0.34 1.02 0 0 Z " fill="#FF7C75" transform="translate(134,20)"/>
<path d="M0 0 C6.31631828 0.40316925 10.64993984 2.71232131 16 6 C15.01 6.495 15.01 6.495 14 7 C11.99074195 6.01873444 9.99242489 5.0150089 8 4 C6.741875 3.649375 5.48375 3.29875 4.1875 2.9375 C3.135625 2.628125 2.08375 2.31875 1 2 C0.67 1.34 0.34 0.68 0 0 Z " fill="#FFA7A1" transform="translate(272,20)"/>
<path d="M0 0 C0 3.80345877 -1.13786331 4.77701015 -3.5 7.6875 C-4.47453125 8.89986328 -4.47453125 8.89986328 -5.46875 10.13671875 C-5.9740625 10.75160156 -6.479375 11.36648437 -7 12 C-8 9 -8 9 -6.875 6.5625 C-4.86407973 3.8142423 -2.74089602 2.00011331 0 0 Z " fill="#FFDDDB" transform="translate(52,95)"/>
<path d="M0 0 C0.66 0.33 1.32 0.66 2 1 C-0.64 3.64 -3.28 6.28 -6 9 C-6.33 7.68 -6.66 6.36 -7 5 C-5.16150909 2.48417034 -2.88689962 1.11750953 0 0 Z " fill="#FF6259" transform="translate(70,53)"/>
<path d="M0 0 C0.66 0.33 1.32 0.66 2 1 C1.54625 1.4125 1.0925 1.825 0.625 2.25 C-1.11586032 3.90608349 -1.11586032 3.90608349 -1.8125 6.125 C-3 8 -3 8 -6.125 8.75 C-7.548125 8.87375 -7.548125 8.87375 -9 9 C-7.6875 7 -7.6875 7 -6 5 C-5.01 5 -4.02 5 -3 5 C-2.690625 4.360625 -2.38125 3.72125 -2.0625 3.0625 C-1 1 -1 1 0 0 Z " fill="#FF665D" transform="translate(84,41)"/>
<path d="M0 0 C0.66 0.33 1.32 0.66 2 1 C1.05016642 2.50539661 0.08988109 4.00420347 -0.875 5.5 C-1.40867187 6.3353125 -1.94234375 7.170625 -2.4921875 8.03125 C-2.98976562 8.6809375 -3.48734375 9.330625 -4 10 C-4.66 10 -5.32 10 -6 10 C-4.6302836 6.00499382 -2.74277578 3.19990508 0 0 Z " fill="#FF675E" transform="translate(37,89)"/>
<path d="M0 0 C1.32 0.33 2.64 0.66 4 1 C3.34 2.32 2.68 3.64 2 5 C0.68 4.67 -0.64 4.34 -2 4 C-2 4.66 -2 5.32 -2 6 C-2.66 5.67 -3.32 5.34 -4 5 C-2.68 3.35 -1.36 1.7 0 0 Z " fill="#FFAAA5" transform="translate(67,58)"/>
<path d="M0 0 C0.66 0 1.32 0 2 0 C1.34 1.98 0.68 3.96 0 6 C-1.98 6 -3.96 6 -6 6 C-4 4 -2 2 0 0 Z " fill="#FFF6F5" transform="translate(44,85)"/>
<path d="M0 0 C1.65 0 3.3 0 5 0 C4.67 1.32 4.34 2.64 4 4 C2.35 4.33 0.7 4.66 -1 5 C-1.33 4.01 -1.66 3.02 -2 2 C-1.34 2 -0.68 2 0 2 C0 1.34 0 0.68 0 0 Z " fill="#FFE3E1" transform="translate(129,20)"/>
<path d="M0 0 C7.42857143 -0.14285714 7.42857143 -0.14285714 11 1 C11 1.66 11 2.32 11 3 C9.54077307 2.88590407 8.08259402 2.75834456 6.625 2.625 C5.40683594 2.52058594 5.40683594 2.52058594 4.1640625 2.4140625 C2 2 2 2 0 0 Z " fill="#FF6056" transform="translate(212,6)"/>
<path d="M0 0 C0 3.58912412 -0.66436554 4.10857029 -3 6.6875 C-3.556875 7.31011719 -4.11375 7.93273437 -4.6875 8.57421875 C-5.120625 9.04472656 -5.55375 9.51523438 -6 10 C-7 8 -7 8 -6.875 6.0625 C-5.63977691 3.15090271 -3.73809484 2.43749979 -1 1 C-0.67 0.67 -0.34 0.34 0 0 Z " fill="#FFD9D6" transform="translate(60,85)"/>
<path d="M0 0 C0.625 1.8125 0.625 1.8125 1 4 C0.01 5.485 0.01 5.485 -1 7 C-1.66 7 -2.32 7 -3 7 C-2.625 4.0625 -2.625 4.0625 -2 1 C-1.34 0.67 -0.68 0.34 0 0 Z " fill="#FFF6F6" transform="translate(404,273)"/>
<path d="M0 0 C0.66 0 1.32 0 2 0 C1.67 2.64 1.34 5.28 1 8 C0.34 8 -0.32 8 -1 8 C-1.04241723 5.66705225 -1.04092937 3.33297433 -1 1 C-0.67 0.67 -0.34 0.34 0 0 Z " fill="#FF736A" transform="translate(420,208)"/>
</svg>
