<?xml version="1.0" encoding="UTF-8"?>
<svg version="1.1" xmlns="http://www.w3.org/2000/svg" width="1080" height="1080">
<path d="M0 0 C5.78080589 -0.13457342 5.78080589 -0.13457342 9.11523438 2.08837891 C6.14523437 2.74837891 3.17523437 3.40837891 0.11523438 4.08837891 C5.56649697 6.32729033 10.24713931 7.56444185 16.11523438 8.08837891 C16.11523438 7.42837891 16.11523438 6.76837891 16.11523438 6.08837891 C18.75523437 5.75837891 21.39523437 5.42837891 24.11523438 5.08837891 C24.44523438 6.07837891 24.77523437 7.06837891 25.11523438 8.08837891 C24.45523438 8.08837891 23.79523438 8.08837891 23.11523438 8.08837891 C23.11523438 7.42837891 23.11523438 6.76837891 23.11523438 6.08837891 C19.99738324 6.73482552 19.99738324 6.73482552 19.11523438 9.08837891 C20.02144531 9.14896484 20.92765625 9.20955078 21.86132812 9.27197266 C39.04273128 10.45376229 39.04273128 10.45376229 47.11523438 12.08837891 C47.92105957 12.21929932 48.72688477 12.35021973 49.55712891 12.48510742 C56.93278377 13.69145858 63.89234095 15.7122713 70.99023438 18.02587891 C72.09109375 18.37328125 73.19195313 18.72068359 74.32617188 19.07861328 C79.3388683 20.69374787 83.60402169 22.35937945 88.11523438 25.08837891 C90.5172628 25.69165333 92.93689119 26.22672713 95.36523438 26.71337891 C102.72138488 28.33365744 108.85830729 31.23274201 115.35449219 35.00292969 C119.30626407 37.27323889 122.47898825 38.66230644 127.11523438 39.08837891 C120.07445627 33.23144845 112.80386503 28.05560421 105.11523438 23.08837891 C105.77523438 22.75837891 106.43523437 22.42837891 107.11523438 22.08837891 C113.39080464 24.77646536 118.4241601 28.15040599 123.11523438 33.08837891 C124.49349842 34.03125572 125.89177037 34.94517734 127.30273438 35.83837891 C131.84681034 38.77466719 135.73245347 42.18815379 139.69726562 45.85791016 C141.87693644 47.86855965 144.10356363 49.7963437 146.36523438 51.71337891 C149.51013966 54.43980889 152.16170023 57.36848884 154.79492188 60.58447266 C156.37280054 62.38176048 158.19081194 63.6820702 160.11523438 65.08837891 C160.11523438 65.74837891 160.11523438 66.40837891 160.11523438 67.08837891 C160.85773438 67.33587891 161.60023438 67.58337891 162.36523438 67.83837891 C165.41394974 69.22415862 167.0714742 70.43906015 169.11523438 73.08837891 C169.36523438 75.83837891 169.36523438 75.83837891 169.11523438 78.08837891 C169.77523438 77.75837891 170.43523437 77.42837891 171.11523438 77.08837891 C171.76736729 75.06374636 171.76736729 75.06374636 172.11523438 73.08837891 C172.77523438 73.08837891 173.43523437 73.08837891 174.11523438 73.08837891 C174.48648437 74.03712891 174.85773438 74.98587891 175.24023438 75.96337891 C177.38150126 80.95633301 180.28553833 85.46392195 183.11523438 90.08837891 C184.3721264 92.188436 185.62206438 94.29266978 186.86523438 96.40087891 C187.43757813 97.36638672 188.00992187 98.33189453 188.59960938 99.32666016 C190.70735243 103.16731567 192.03648825 106.20642232 192.42773438 110.58837891 C193.28570858 114.9562476 194.97308989 116.01930755 198.11523438 119.08837891 C203.16285039 127.32396293 204.80762829 137.66546623 205.61523438 147.15087891 C205.83185894 151.03635801 205.83185894 151.03635801 207.74023438 153.71337891 C209.11523438 156.08837891 209.11523438 156.08837891 208.58398438 159.21728516 C208.03184664 163.77702262 208.76962886 167.03984133 209.99023438 171.40087891 C210.17714844 172.11566406 210.3640625 172.83044922 210.55664062 173.56689453 C211.57722457 177.42143245 211.57722457 177.42143245 213.11523438 181.08837891 C213.24564492 183.03756718 213.31790073 184.99078445 213.36132812 186.94384766 C213.39419922 188.12398437 213.42707031 189.30412109 213.4609375 190.52001953 C213.52165606 193.00431314 213.57900237 195.48869168 213.6328125 197.97314453 C213.80826297 204.06756564 214.29089705 209.24040432 216.11523438 215.08837891 C216.44861558 217.92552103 216.49539735 220.73355468 216.49023438 223.58837891 C216.49079834 224.39210938 216.4913623 225.19583984 216.49194336 226.02392578 C216.29619618 237.25959982 214.67835646 249.39901266 211.11523438 260.08837891 C210.45523437 260.08837891 209.79523438 260.08837891 209.11523438 260.08837891 C209.09460938 261.36712891 209.07398438 262.64587891 209.05273438 263.96337891 C208.46812739 270.20804446 206.08781251 275.51570384 203.70166016 281.24414062 C201.32163597 287.11372016 200.16963717 292.34114139 199.69726562 298.68212891 C199.11523438 301.08837891 199.11523438 301.08837891 197.06445312 302.43212891 C196.42121094 302.64869141 195.77796875 302.86525391 195.11523438 303.08837891 C195.34210938 303.97525391 195.56898438 304.86212891 195.80273438 305.77587891 C196.18405696 309.81789826 195.19699642 310.70799387 193.11523438 314.08837891 C192.42054881 316.05093167 191.77572115 318.03173418 191.17773438 320.02587891 C189.66780452 324.72856121 188.07739864 328.17067778 185.11523438 332.08837891 C182.2139896 336.06415878 181.69428121 339.19985026 181.42382812 344.00244141 C181.11523438 346.08837891 181.11523438 346.08837891 179.11523438 349.08837891 C176.79492188 349.45947266 176.79492188 349.45947266 173.99023438 349.52587891 C162.88561901 350.29121651 153.99221977 357.50692302 145.92773438 364.77587891 C143.16180442 367.26686552 140.46122297 369.11608061 137.15820312 370.86962891 C131.36031993 374.32840435 126.06780912 378.75687999 120.77539062 382.93603516 C116.93567155 385.93558538 113.80907899 387.60008671 109.11523438 389.08837891 C108.78523438 390.07837891 108.45523437 391.06837891 108.11523438 392.08837891 C106.54972518 392.54063712 104.9796207 392.97967097 103.39648438 393.36572266 C99.4453161 394.61737699 95.87399471 396.66948522 92.19726562 398.56103516 C88.56107366 400.36300101 84.86289783 401.87446913 81.07617188 403.32666016 C79.08144369 404.06652163 79.08144369 404.06652163 77.11523438 405.08837891 C75.11920232 405.29726598 73.11780497 405.45613368 71.11523438 405.58837891 C69.36146484 405.7140625 69.36146484 405.7140625 67.57226562 405.84228516 C66.43144531 405.92349609 65.290625 406.00470703 64.11523438 406.08837891 C59.23746975 406.46254495 54.58435179 406.8841757 49.86523438 408.21337891 C46.11069582 409.0894379 43.8153767 409.01341449 40.11523438 408.08837891 C40.11523438 408.74837891 40.11523438 409.40837891 40.11523438 410.08837891 C39.40496094 410.14896484 38.6946875 410.20955078 37.96289062 410.27197266 C36.58423828 410.39765625 36.58423828 410.39765625 35.17773438 410.52587891 C34.26121094 410.60708984 33.3446875 410.68830078 32.40039062 410.77197266 C30.15363706 410.84882867 30.15363706 410.84882867 29.11523438 412.08837891 C26.32177709 412.20226086 23.55409561 412.25258242 20.75976562 412.25634766 C19.90654221 412.25967606 19.05331879 412.26300446 18.17424011 412.26643372 C16.35583028 412.27151328 14.53741106 412.27384173 12.71899414 412.27368164 C9.98437124 412.27583432 7.25017455 412.29388291 4.515625 412.31298828 C-8.58240763 412.35570649 -20.74985371 411.45243633 -33.39257812 407.73291016 C-35.67799689 407.14185358 -37.72491841 406.8683924 -40.07226562 406.71337891 C-44.5796504 406.32214117 -48.71228216 405.06054933 -53.00976562 403.71337891 C-53.67903076 403.50406738 -54.3482959 403.29475586 -55.0378418 403.07910156 C-59.44266699 401.65699867 -63.65474918 399.96716543 -67.88476562 398.08837891 C-67.88476562 397.75837891 -67.88476562 397.42837891 -67.88476562 397.08837891 C-60.71834143 396.58936291 -55.37521821 397.36163455 -48.73632812 400.06884766 C-44.67195779 401.52199924 -40.58099224 402.10073749 -36.31835938 402.69384766 C-33.88476562 403.08837891 -33.88476562 403.08837891 -31.88476562 404.08837891 C-30.14743757 404.30912731 -28.40358155 404.47968529 -26.65820312 404.62353516 C-25.62695312 404.71054687 -24.59570312 404.79755859 -23.53320312 404.88720703 C-22.45296875 404.97421875 -21.37273437 405.06123047 -20.25976562 405.15087891 C-18.6278125 405.28719727 -18.6278125 405.28719727 -16.96289062 405.42626953 C-14.27046406 405.65063841 -11.57777854 405.87118005 -8.88476562 406.08837891 C-8.88476562 406.74837891 -8.88476562 407.40837891 -8.88476562 408.08837891 C-7.89476562 407.75837891 -6.90476562 407.42837891 -5.88476562 407.08837891 C-2.88533345 406.9574725 0.0949798 406.87886665 3.09570312 406.84228516 C4.91797325 406.80933019 6.74023876 406.77611883 8.5625 406.74267578 C11.42810713 406.69540955 14.2936978 406.65100325 17.15942383 406.61157227 C19.93005272 406.57158479 22.70029288 406.52009079 25.47070312 406.46728516 C26.31682663 406.458871 27.16295013 406.45045685 28.03471375 406.44178772 C33.37702119 406.3321027 37.96152445 405.48896764 43.11523438 404.08837891 C45.61235991 403.96149245 48.11534939 403.9153042 50.61523438 403.96337891 C51.84242188 403.98142578 53.06960938 403.99947266 54.33398438 404.01806641 C55.71070313 404.05287109 55.71070313 404.05287109 57.11523438 404.08837891 C57.11523438 403.09837891 57.11523438 402.10837891 57.11523438 401.08837891 C56.43460938 401.22115234 55.75398437 401.35392578 55.05273438 401.49072266 C40.83353897 404.08118778 26.40729324 404.31950997 11.99023438 404.33837891 C11.23264832 404.340383 10.47506226 404.34238708 9.69451904 404.3444519 C-2.30089455 404.35217056 -13.838727 403.43099775 -25.67822266 401.42578125 C-30.00251393 400.76455415 -34.35084206 400.53653517 -38.71679688 400.29931641 C-40.88476562 400.08837891 -40.88476562 400.08837891 -41.88476562 399.08837891 C-45.18471576 398.42914229 -48.48945665 397.84554023 -51.80664062 397.28173828 C-55.74699778 396.58275949 -59.17640189 395.6384357 -62.88476562 394.08837891 C-64.10164062 393.96462891 -65.31851563 393.84087891 -66.57226562 393.71337891 C-67.66539062 393.50712891 -68.75851562 393.30087891 -69.88476562 393.08837891 C-70.18125 392.44771484 -70.47773438 391.80705078 -70.78320312 391.14697266 C-71.71892254 388.87491358 -71.71892254 388.87491358 -74.16210938 388.14697266 C-75.47888672 387.83953125 -75.47888672 387.83953125 -76.82226562 387.52587891 C-80.56387492 386.6386932 -82.2448516 385.82054799 -84.88476562 383.08837891 C-86.94357124 382.19828094 -86.94357124 382.19828094 -89.19726562 381.58837891 C-100.210632 378.11234056 -108.75789346 371.21214288 -116.13476562 362.40087891 C-119.41119702 359.64569796 -121.69709477 359.38344903 -125.81054688 358.68994141 C-128.90066385 357.79374929 -130.02958161 355.60612864 -131.88476562 353.08837891 C-134.55404683 352.66967337 -134.55404683 352.66967337 -136.88476562 353.08837891 C-137.54476562 350.77837891 -138.20476562 348.46837891 -138.88476562 346.08837891 C-139.87476563 346.08837891 -140.86476563 346.08837891 -141.88476562 346.08837891 C-143.90800175 345.13626779 -145.91176447 344.14064619 -147.88476562 343.08837891 C-147.88476562 341.76837891 -147.88476562 340.44837891 -147.88476562 339.08837891 C-148.48289062 338.90275391 -149.08101563 338.71712891 -149.69726562 338.52587891 C-152.41961291 336.73690783 -152.91004725 334.84500144 -154.05273438 331.88134766 C-155.39496664 328.98893164 -157.54452922 327.21586655 -159.88476562 325.08837891 C-169.66899585 315.97223489 -169.66899585 315.97223489 -170.07226562 308.71337891 C-170.01039063 307.84712891 -169.94851563 306.98087891 -169.88476562 306.08837891 C-170.87476563 305.75837891 -171.86476563 305.42837891 -172.88476562 305.08837891 C-179.40587256 295.24361102 -182.72746038 282.90702545 -186.14379883 271.69506836 C-187.18081921 268.29776147 -188.26319948 264.95314627 -189.57226562 261.65087891 C-195.74047943 244.9085843 -196.15506362 225.22260949 -196.19726562 207.58837891 C-196.20258301 206.47922119 -196.20790039 205.37006348 -196.21337891 204.22729492 C-196.14396948 196.47718469 -196.14396948 196.47718469 -193.88476562 193.08837891 C-192.89476562 193.08837891 -191.90476562 193.08837891 -190.88476562 193.08837891 C-190.83578125 193.80123047 -190.78679687 194.51408203 -190.73632812 195.24853516 C-190.25527806 201.72844403 -190.25527806 201.72844403 -188.75976562 208.02587891 C-187.91011282 210.99966372 -187.75706034 212.26911569 -188.88476562 215.08837891 C-189.21476562 214.75837891 -189.54476563 214.42837891 -189.88476562 214.08837891 C-190.04152202 221.80427707 -189.55929663 229.40354351 -188.88476562 237.08837891 C-187.89476562 237.08837891 -186.90476562 237.08837891 -185.88476562 237.08837891 C-186.21476562 232.79837891 -186.54476563 228.50837891 -186.88476562 224.08837891 C-186.22476562 224.08837891 -185.56476563 224.08837891 -184.88476562 224.08837891 C-184.88476562 223.42837891 -184.88476562 222.76837891 -184.88476562 222.08837891 C-186.20476562 221.75837891 -187.52476562 221.42837891 -188.88476562 221.08837891 C-188.22476562 219.10837891 -187.56476563 217.12837891 -186.88476562 215.08837891 C-185.56476563 215.08837891 -184.24476563 215.08837891 -182.88476562 215.08837891 C-182.89000244 214.41258789 -182.89523926 213.73679687 -182.90063477 213.04052734 C-182.9214457 209.97315402 -182.93443891 206.90579557 -182.94726562 203.83837891 C-182.95564453 202.77490234 -182.96402344 201.71142578 -182.97265625 200.61572266 C-182.97749023 199.07851563 -182.97749023 199.07851563 -182.98242188 197.51025391 C-182.9902771 196.09631348 -182.9902771 196.09631348 -182.99829102 194.65380859 C-182.89444644 192.30714453 -182.55183091 190.33193412 -181.88476562 188.08837891 C-182.87476563 188.08837891 -183.86476563 188.08837891 -184.88476562 188.08837891 C-185.07039063 187.20150391 -185.25601562 186.31462891 -185.44726562 185.40087891 C-187.00724905 181.8061345 -187.23967879 181.73658826 -190.43554688 180.08837891 C-192.90544839 178.39908196 -193.75504915 177.5958608 -194.50512695 174.66137695 C-194.68448835 171.67245295 -194.64220196 168.76704823 -194.50976562 165.77587891 C-194.50332031 164.76847656 -194.496875 163.76107422 -194.49023438 162.72314453 C-194.32388732 155.21306415 -193.11360462 149.4316374 -188.88476562 143.08837891 C-188.63726562 141.32494141 -188.63726562 141.32494141 -188.38476562 139.52587891 C-187.88476562 136.08837891 -187.88476562 136.08837891 -185.88476562 134.08837891 C-182.75976562 133.96337891 -182.75976562 133.96337891 -179.88476562 134.08837891 C-179.01155404 137.2901547 -178.92180829 139.32298244 -179.44726562 142.65087891 C-179.88684267 146.10469858 -179.97594394 147.36984709 -177.88476562 150.08837891 C-176.89476562 150.41837891 -175.90476562 150.74837891 -174.88476562 151.08837891 C-174.63984375 149.80318359 -174.39492188 148.51798828 -174.14257812 147.19384766 C-172.97094073 141.94405034 -171.01360454 137.26863751 -168.75976562 132.40087891 C-168.36305664 131.53237305 -167.96634766 130.66386719 -167.55761719 129.76904297 C-163.28292278 120.55651541 -158.34725248 111.8617746 -152.82226562 103.33837891 C-152.18289063 102.26587891 -151.54351562 101.19337891 -150.88476562 100.08837891 C-151.21476562 99.42837891 -151.54476562 98.76837891 -151.88476562 98.08837891 C-152.87476563 98.08837891 -153.86476563 98.08837891 -154.88476562 98.08837891 C-154.88476562 98.74837891 -154.88476562 99.40837891 -154.88476562 100.08837891 C-156.52844703 101.77771813 -158.19905322 103.44097815 -159.88476562 105.08837891 C-160.54476562 105.91337891 -161.20476562 106.73837891 -161.88476562 107.58837891 C-164.0490439 110.29372675 -166.40407654 112.67297111 -168.88476562 115.08837891 C-169.87476563 116.07837891 -169.87476563 116.07837891 -170.88476562 117.08837891 C-172.50013418 114.62221125 -172.97835012 113.54904675 -172.38085938 110.60791016 C-165.92960867 94.11080043 -165.92960867 94.11080043 -161.88476562 92.08837891 C-161.88476562 90.76837891 -161.88476562 89.44837891 -161.88476562 88.08837891 C-160.64257812 86.12353516 -160.64257812 86.12353516 -159.00976562 84.15087891 C-156.69714404 81.23283044 -155.00908719 78.68620792 -153.88476562 75.08837891 C-153.22476563 75.08837891 -152.56476563 75.08837891 -151.88476562 75.08837891 C-151.65789062 74.36650391 -151.43101562 73.64462891 -151.19726562 72.90087891 C-149.61144688 69.50269588 -147.62353239 67.63606892 -144.88476562 65.08837891 C-144.10101563 64.28400391 -143.31726563 63.47962891 -142.50976562 62.65087891 C-133.73842416 54.08837891 -133.73842416 54.08837891 -130.88476562 54.08837891 C-130.84351563 53.34587891 -130.80226563 52.60337891 -130.75976562 51.83837891 C-129.53619179 47.99286115 -127.29129981 47.04532407 -123.88476562 45.08837891 C-123.22476563 45.41837891 -122.56476563 45.74837891 -121.88476562 46.08837891 C-122.87476563 47.07837891 -123.86476563 48.06837891 -124.88476562 49.08837891 C-122.92930871 50.33853819 -122.92930871 50.33853819 -120.82617188 49.56494141 C-120.04113281 49.28392578 -119.25609375 49.00291016 -118.44726562 48.71337891 C-117.66480469 48.43751953 -116.88234375 48.16166016 -116.07617188 47.87744141 C-115.35300781 47.61705078 -114.62984375 47.35666016 -113.88476562 47.08837891 C-112.89476562 46.75837891 -111.90476562 46.42837891 -110.88476562 46.08837891 C-110.42070312 44.85087891 -110.42070312 44.85087891 -109.94726562 43.58837891 C-109.59664063 42.76337891 -109.24601562 41.93837891 -108.88476562 41.08837891 C-106.94726562 40.46337891 -106.94726562 40.46337891 -104.88476562 40.08837891 C-104.42336182 39.62560547 -103.96195801 39.16283203 -103.48657227 38.68603516 C-101.794336 36.99818359 -100.34443101 36.16660976 -98.19335938 35.15087891 C-97.48808105 34.81185547 -96.78280273 34.47283203 -96.05615234 34.12353516 C-95.33959473 33.78193359 -94.62303711 33.44033203 -93.88476562 33.08837891 C-92.56138008 32.4252347 -91.23972284 31.75862884 -89.91992188 31.08837891 C-79.61729241 25.89300309 -69.71955352 21.1825681 -58.60742188 17.92041016 C-55.95275689 17.19166174 -55.95275689 17.19166174 -53.88476562 16.08837891 C-58.72104867 17.07881596 -63.36095436 18.04536737 -67.88476562 20.08837891 C-67.55476562 19.09837891 -67.22476563 18.10837891 -66.88476562 17.08837891 C-63.82226562 15.90087891 -63.82226562 15.90087891 -60.88476562 15.08837891 C-60.88476562 14.42837891 -60.88476562 13.76837891 -60.88476562 13.08837891 C-63.19476563 13.08837891 -65.50476563 13.08837891 -67.88476562 13.08837891 C-60.42688134 6.9571375 -51.03547644 4.55473482 -41.54101562 4.42431641 C-38.81237734 4.27996595 -38.81237734 4.27996595 -36.65332031 2.59936523 C-33.22906668 0.73051993 -30.81993743 0.66043743 -26.93164062 0.57666016 C-26.27198303 0.55870895 -25.61232544 0.54075775 -24.93267822 0.52226257 C-22.83343941 0.46842283 -20.73441606 0.4344482 -18.63476562 0.40087891 C-17.24020315 0.3676596 -15.84567042 0.33316576 -14.45117188 0.29736328 C-9.63431753 0.17895002 -4.81600102 0.14754505 0 0 Z " fill="#FE4A3F" transform="translate(519.884765625,275.91162109375)"/>
<path d="M0 0 C8.70113334 -0.06942477 17.40217176 -0.12277271 26.10352135 -0.15543652 C30.14365781 -0.17111131 34.18360519 -0.19238225 38.22363281 -0.22631836 C42.12045787 -0.25884776 46.01710074 -0.27683934 49.91405106 -0.28463173 C51.40286758 -0.29018685 52.89167382 -0.30103436 54.38041306 -0.31719017 C56.46134966 -0.33888007 58.54152765 -0.34197061 60.62255859 -0.34057617 C62.40126846 -0.35056892 62.40126846 -0.35056892 64.21591187 -0.36076355 C65.13466095 -0.24171158 66.05341003 -0.12265961 67 0 C71.30056437 6.45084656 71.37974743 15.230978 72.0625 22.8125 C72.14048828 23.59302734 72.21847656 24.37355469 72.29882812 25.17773438 C74.15126009 45.00334926 74.16369907 64.89831064 74.16725707 84.79100466 C74.167979 87.07143034 74.17013449 89.35185038 74.17275429 91.63227463 C74.18196004 99.67005533 74.18609634 107.70781968 74.18530273 115.74560547 C74.18477282 122.29250561 74.19177265 128.83934562 74.20581055 135.38623047 C74.33706427 198.16724778 74.33706427 198.16724778 73.17578125 223.7734375 C73.14110434 224.58859455 73.10642742 225.4037516 73.07069969 226.24361038 C72.66465482 235.35681949 71.79711267 244.35123248 70.55151367 253.38916016 C70.42990781 254.28706457 70.30830194 255.18496899 70.18301105 256.11008263 C70.05999213 256.95036821 69.93697321 257.7906538 69.81022644 258.65640259 C69.70250003 259.39923304 69.59477362 260.14206348 69.48378277 260.90740395 C68.95266812 263.20473344 68.22972678 264.98853548 67 267 C64.79833984 267.79077148 64.79833984 267.79077148 62.0859375 268.18359375 C61.09561523 268.33038574 60.10529297 268.47717773 59.08496094 268.62841797 C54.26976902 269.20840547 49.4608344 269.69122211 44.625 270.0625 C43.58045654 270.14483887 42.53591309 270.22717773 41.4597168 270.31201172 C21.61745083 271.83082101 1.89144071 272.13554289 -18 272 C-18.48603703 269.56370116 -18.96385629 267.12621435 -19.4375 264.6875 C-19.57220703 264.01654297 -19.70691406 263.34558594 -19.84570312 262.65429688 C-21.82927745 252.34938636 -22.16347895 242.11701127 -22.13037109 231.63964844 C-22.12502583 229.63468808 -22.13034292 227.62995349 -22.13671875 225.625 C-22.12951165 218.31700449 -21.86305043 211.10338853 -21.24023438 203.82226562 C-20.94497379 200.35355392 -20.76413051 196.91813851 -20.6875 193.4375 C-20.65011719 192.30183594 -20.61273437 191.16617188 -20.57421875 189.99609375 C-21.10023351 186.2946871 -22.078091 185.25667578 -25 183 C-28.76857787 180.59229747 -31.57315111 180.84657192 -35.87890625 181.46875 C-38.99622009 182.24951369 -40.23900036 183.32328055 -42 186 C-46.44656959 197.46746894 -45.18629218 210.97712322 -45.18530273 223.06713867 C-45.18747707 226.0312361 -45.20564864 228.99495307 -45.22460938 231.95898438 C-45.25477742 242.5501783 -44.81782048 252.87691949 -43.4309082 263.38061523 C-43.08208826 266.31050515 -42.90947617 269.0577965 -43 272 C-66.35581611 272.21114437 -90.03816143 272.38823848 -113.3125 270.125 C-114.41247314 270.02566162 -114.41247314 270.02566162 -115.53466797 269.92431641 C-119.67784373 269.45370623 -122.67845078 268.55456207 -126 266 C-129.88718775 256.86510878 -129.14994298 245.61783742 -129.14526367 235.84741211 C-129.1485713 234.79714592 -129.15187893 233.74687973 -129.15528679 232.66478729 C-129.16461786 229.20229536 -129.16659506 225.73984735 -129.16796875 222.27734375 C-129.17196179 219.80721505 -129.17615231 217.33708667 -129.18052673 214.86695862 C-129.19094302 207.575032 -129.19087833 200.28312952 -129.18809986 192.99119949 C-129.18749999 190.93748198 -129.18744952 188.88376519 -129.18758392 186.83004761 C-129.18934166 151.04628579 -129.02594452 115.27449487 -128.125 79.5 C-128.10521969 78.69368511 -128.08543938 77.88737022 -128.06505966 77.05662155 C-127.44971193 52.01734015 -126.30181219 27.0122443 -125 2 C-92.66076349 1.18886966 -60.34918538 0.86260474 -28 1 C-29.72806738 13.3827564 -31.906187 25.66388926 -36.1875 37.4375 C-37.40245723 41.2692882 -37.67246962 45.00412932 -38 49 C-38.33 49.33 -38.66 49.66 -39 50 C-39.31633826 52.84666271 -39.5733202 55.67641396 -39.7890625 58.53125 C-39.89037979 59.82887268 -39.89037979 59.82887268 -39.9937439 61.15270996 C-40.13561141 62.99192163 -40.27499047 64.83132665 -40.41210938 66.67089844 C-40.62207354 69.46111028 -40.84572281 72.24999495 -41.0703125 75.0390625 C-41.20657492 76.82806078 -41.34201659 78.6171218 -41.4765625 80.40625 C-41.54420807 81.23161255 -41.61185364 82.0569751 -41.68154907 82.90734863 C-42.56613243 93.10345812 -42.56613243 93.10345812 -38.5625 102 C-34.44564728 105.21315334 -31.13364588 105.54298178 -26 105 C-21.74710627 103.20433376 -19.99777661 101.10702311 -18 97 C-17.63765426 94.26740651 -17.4223153 91.72717904 -17.33984375 88.98828125 C-17.30443985 88.22001511 -17.26903595 87.45174896 -17.2325592 86.66020203 C-17.12119926 84.21132292 -17.02798061 81.76223244 -16.9375 79.3125 C-16.19705633 60.58132664 -16.19705633 60.58132664 -14.49731445 53.28833008 C-13.72994189 49.75736149 -13.37427057 46.19040179 -12.96191406 42.60351562 C-11.48736336 29.84117247 -8.86679045 18.75395703 -3.359375 7.125 C-3.03565918 6.43664062 -2.71194336 5.74828125 -2.37841797 5.0390625 C-1.58768804 3.35839667 -0.7941353 1.67905943 0 0 Z " fill="#FFFEFE" transform="translate(567,339)"/>
<path d="M0 0 C0.99 0 1.98 0 3 0 C3.33 2.97 3.66 5.94 4 9 C3.34 9 2.68 9 2 9 C2 9.66 2 10.32 2 11 C2.9590625 11.1546875 2.9590625 11.1546875 3.9375 11.3125 C4.618125 11.539375 5.29875 11.76625 6 12 C7.34410021 16.03230062 6.44286447 19.36673494 5.6875 23.4375 C5.49124023 24.5831543 5.49124023 24.5831543 5.29101562 25.75195312 C4.6114748 29.52389712 3.84138756 32.6062319 2 36 C2.29805007 38.19747131 2.29805007 38.19747131 3 40 C1.515 40.495 1.515 40.495 0 41 C-0.04898438 41.86882813 -0.09796875 42.73765625 -0.1484375 43.6328125 C-0.22320313 44.78523437 -0.29796875 45.93765625 -0.375 47.125 C-0.44460938 48.26195312 -0.51421875 49.39890625 -0.5859375 50.5703125 C-1.19550911 55.61940567 -2.97288743 60.06545831 -4.875 64.75 C-5.9467995 67.3916471 -7.01285777 70.0331798 -8.04296875 72.69140625 C-11.62641392 81.90401815 -11.62641392 81.90401815 -14 85 C-14.99 85 -15.98 85 -17 85 C-17.33 85.99 -17.66 86.98 -18 88 C-18.33 88 -18.66 88 -19 88 C-19 86.02 -19 84.04 -19 82 C-21.475 82.495 -21.475 82.495 -24 83 C-24 83.66 -24 84.32 -24 85 C-24.66 85 -25.32 85 -26 85 C-25.42105072 81.29472461 -24.24354904 78.04751381 -22.8828125 74.56640625 C-21.52857717 70.62953628 -20.57357787 66.58833878 -19.5559082 62.55444336 C-18.63859003 59.03405478 -17.58067221 55.89593918 -15.875 52.6875 C-13.08914951 46.96344781 -13.01223556 40.58292053 -12.43359375 34.3359375 C-11.97890937 29.46986958 -11.08341708 24.76157255 -10 20 C-9.66304231 18.33406231 -9.32885487 16.66755611 -9 15 C-8.67 15 -8.34 15 -8 15 C-8 18.3 -8 21.6 -8 25 C-7.34 25.33 -6.68 25.66 -6 26 C-6.04125 25.071875 -6.0825 24.14375 -6.125 23.1875 C-6 20 -6 20 -4 17 C-3.65246771 14.46156398 -3.65246771 14.46156398 -3.5625 11.6875 C-3.22760534 7.01137823 -2.46310101 3.96237988 0 0 Z " fill="#FF4F44" transform="translate(749,485)"/>
<path d="M0 0 C2.31317961 0.30742903 4.62553352 0.62107702 6.9375 0.9375 C8.22527344 1.11152344 9.51304687 1.28554688 10.83984375 1.46484375 C14 2 14 2 15 3 C16.56339756 3.20393774 18.13476112 3.34750158 19.70703125 3.46484375 C20.68736328 3.54283203 21.66769531 3.62082031 22.67773438 3.70117188 C24.72455949 3.85548081 26.77143258 4.00915513 28.81835938 4.16210938 C33.8449345 4.56280201 38.7303936 5.10077868 43.68359375 6.0546875 C50.77025847 7.29420434 57.81314523 7.26528956 64.97998047 7.20581055 C67.23286455 7.18763822 69.48533158 7.1853013 71.73828125 7.18554688 C88.11881975 7.70284979 88.11881975 7.70284979 104 5 C105.56118428 4.93259135 107.1250252 4.91485544 108.6875 4.9375 C109.89986328 4.95103516 109.89986328 4.95103516 111.13671875 4.96484375 C112.05904297 4.98224609 112.05904297 4.98224609 113 5 C113 5.99 113 6.98 113 8 C112.0821875 8.04898438 111.164375 8.09796875 110.21875 8.1484375 C108.9915625 8.22320313 107.764375 8.29796875 106.5 8.375 C105.2934375 8.44460938 104.086875 8.51421875 102.84375 8.5859375 C99.00318413 8.89361676 99.00318413 8.89361676 95.41015625 10 C90.47828751 11.26207171 85.66344803 11.35048897 80.59375 11.4140625 C79.6284436 11.43342865 78.66313721 11.4527948 77.6685791 11.4727478 C74.61247343 11.53210018 71.55632918 11.57875038 68.5 11.625 C66.41665105 11.66322064 64.33331722 11.7022747 62.25 11.7421875 C57.1667907 11.83776489 52.08350753 11.92195813 47 12 C47 11.34 47 10.68 47 10 C46.34515625 9.98018066 45.6903125 9.96036133 45.015625 9.93994141 C42.01005552 9.84389478 39.00510669 9.73454216 36 9.625 C34.45505859 9.57859375 34.45505859 9.57859375 32.87890625 9.53125 C26.93798451 9.3042084 21.70792747 8.65536028 16 7 C14.40091797 6.61328125 14.40091797 6.61328125 12.76953125 6.21875 C11.79371094 5.9815625 10.81789063 5.744375 9.8125 5.5 C8.33716797 5.14421875 8.33716797 5.14421875 6.83203125 4.78125 C4.11836273 4.03265179 1.58938248 3.09823901 -1 2 C-0.67 1.34 -0.34 0.68 0 0 Z " fill="#FFF5F4" transform="translate(464,672)"/>
<path d="M0 0 C0.66 0.33 1.32 0.66 2 1 C1.01 1.99 0.02 2.98 -1 4 C-0.34 4.99 0.32 5.98 1 7 C-2.51160884 11.18738236 -6.13389115 15.13389115 -10 19 C-10.98613082 20.16078614 -11.9649127 21.32784284 -12.9375 22.5 C-14.8549471 24.79313012 -16.43197787 26.31928799 -18.875 28.125 C-23.08726855 31.40857942 -25.38855351 36.37034516 -27.97265625 40.94140625 C-30.01812867 44.02735018 -31.99809765 45.87213508 -35 48 C-36.32 47.34 -37.64 46.68 -39 46 C-37.53650125 41.47645842 -35.01661634 38.61993961 -32 35 C-30.6950516 32.2875382 -30.6950516 32.2875382 -30 30 C-29.34 30 -28.68 30 -28 30 C-27.773125 29.278125 -27.54625 28.55625 -27.3125 27.8125 C-25.72668125 24.41431697 -23.73876676 22.54769001 -21 20 C-20.21625 19.195625 -19.4325 18.39125 -18.625 17.5625 C-9.85365854 9 -9.85365854 9 -7 9 C-6.95875 8.2575 -6.9175 7.515 -6.875 6.75 C-5.65142617 2.90448224 -3.40653418 1.95694517 0 0 Z " fill="#FFDCDA" transform="translate(396,321)"/>
<path d="M0 0 C3.82064733 11.46194199 -1.64399128 25.2011612 -5.83203125 35.8125 C-7.07570723 39.20661237 -7.91177561 42.51423695 -8.59765625 46.0546875 C-9.16254508 48.78589757 -10.05894744 51.37849644 -11 54 C-12.5703125 52.3125 -12.5703125 52.3125 -14 50 C-13.7421875 47.625 -13.7421875 47.625 -12.875 45 C-12.57722656 44.04480469 -12.27945313 43.08960938 -11.97265625 42.10546875 C-11.65167969 41.08066406 -11.33070313 40.05585937 -11 39 C-10.42249323 36.77467391 -9.85952264 34.54551512 -9.3125 32.3125 C-9.06113281 31.29800781 -8.80976562 30.28351562 -8.55078125 29.23828125 C-8.36902344 28.49964844 -8.18726563 27.76101563 -8 27 C-7.34 27 -6.68 27 -6 27 C-5.91959473 26.35450195 -5.83918945 25.70900391 -5.75634766 25.04394531 C-5.38677583 22.11162218 -5.0060115 19.18085772 -4.625 16.25 C-4.43550781 14.72632813 -4.43550781 14.72632813 -4.2421875 13.171875 C-4.11328125 12.1921875 -3.984375 11.2125 -3.8515625 10.203125 C-3.73635254 9.30239258 -3.62114258 8.40166016 -3.50244141 7.47363281 C-2.92085736 4.61036287 -2.10029909 2.10029909 0 0 Z " fill="#FFECEB" transform="translate(737,509)"/>
<path d="M0 0 C0.66 0.33 1.32 0.66 2 1 C-1.52756993 8.97455967 -8.17634986 15.72717944 -15 21 C-19.28729606 24.84757339 -22.29999082 29.20508584 -25.44921875 33.98828125 C-25.96097656 34.65214844 -26.47273438 35.31601562 -27 36 C-27.66 36 -28.32 36 -29 36 C-27.53650125 31.47645842 -25.01661634 28.61993961 -22 25 C-20.6950516 22.2875382 -20.6950516 22.2875382 -20 20 C-19.34 20 -18.68 20 -18 20 C-17.773125 19.278125 -17.54625 18.55625 -17.3125 17.8125 C-15.72668125 14.41431697 -13.73876676 12.54769001 -11 10 C-10.195625 9.175 -9.39125 8.35 -8.5625 7.5 C-5.81915715 4.82356795 -2.97119711 2.41841625 0 0 Z " fill="#FF554A" transform="translate(386,331)"/>
<path d="M0 0 C0.66 0.33 1.32 0.66 2 1 C0.515 2.485 0.515 2.485 -1 4 C-0.01 5.485 -0.01 5.485 1 7 C-9.4809322 19.49788136 -9.4809322 19.49788136 -14 20 C-13.360625 19.113125 -12.72125 18.22625 -12.0625 17.3125 C-10.19170243 14.30788572 -9.40576034 12.4489629 -9 9 C-8.34 9 -7.68 9 -7 9 C-6.95875 8.2575 -6.9175 7.515 -6.875 6.75 C-5.65142617 2.90448224 -3.40653418 1.95694517 0 0 Z " fill="#FFEEED" transform="translate(396,321)"/>
<path d="M0 0 C0.65935547 0.98226563 0.65935547 0.98226563 1.33203125 1.984375 C1.88246094 2.64953125 2.43289063 3.3146875 3 4 C5.62625139 4.33425735 5.62625139 4.33425735 8 4 C6.68 4.33 5.36 4.66 4 5 C3.855625 5.61875 3.71125 6.2375 3.5625 6.875 C3 9 3 9 2 11 C3.32 11.33 4.64 11.66 6 12 C6 12.66 6 13.32 6 14 C5.34 14 4.68 14 4 14 C4.16371094 14.56203125 4.32742188 15.1240625 4.49609375 15.703125 C5.02864997 18.13059056 5.09898681 20.26889681 5.0625 22.75 C5.05347656 23.54921875 5.04445313 24.3484375 5.03515625 25.171875 C5.01775391 26.07679688 5.01775391 26.07679688 5 27 C4.01 27 3.02 27 2 27 C0.31055164 17.91921505 -0.24908976 9.23015944 0 0 Z " fill="#FFECEB" transform="translate(329,486)"/>
<path d="M0 0 C1.65 0.33 3.3 0.66 5 1 C3.54331217 3.96783129 1.98767914 6.86415313 0.375 9.75 C-0.07101562 10.54921875 -0.51703125 11.3484375 -0.9765625 12.171875 C-1.31429688 12.77515625 -1.65203125 13.3784375 -2 14 C-3.66666667 14 -5.33333333 14 -7 14 C-7.33 14.99 -7.66 15.98 -8 17 C-9 15 -9 15 -7.8125 11.1875 C-6.38846392 7.6012807 -4.71099444 4.79844588 -2 2 C-1.34 2 -0.68 2 0 2 C0 1.34 0 0.68 0 0 Z " fill="#FFDCDA" transform="translate(365,374)"/>
<path d="M0 0 C2.31317961 0.30742903 4.62553352 0.62107702 6.9375 0.9375 C8.22527344 1.11152344 9.51304687 1.28554688 10.83984375 1.46484375 C14 2 14 2 15 3 C17.18292774 3.23481693 19.37203174 3.41363323 21.5625 3.5625 C23.35880859 3.68818359 23.35880859 3.68818359 25.19140625 3.81640625 C26.11824219 3.87699219 27.04507812 3.93757812 28 4 C28 4.33 28 4.66 28 5 C24.7 5 21.4 5 18 5 C18 5.66 18 6.32 18 7 C11.31816637 5.9559635 5.2534035 4.5957524 -1 2 C-0.67 1.34 -0.34 0.68 0 0 Z " fill="#FFEAE9" transform="translate(464,672)"/>
<path d="M0 0 C0.25 7.625 0.25 7.625 -2 11 C-2.38499891 12.65549531 -2.72793135 14.3222433 -3 16 C-4.57421875 14.35546875 -4.57421875 14.35546875 -6 12 C-5.70703125 9.23828125 -5.70703125 9.23828125 -4.8125 6.3125 C-4.53019531 5.33925781 -4.24789062 4.36601563 -3.95703125 3.36328125 C-2.59504132 0 -2.59504132 0 0 0 Z " fill="#FFE5E3" transform="translate(729,547)"/>
<path d="M0 0 C2.85440587 0.14196516 5.70846196 0.28845826 8.5625 0.4375 C9.36236328 0.47681641 10.16222656 0.51613281 10.98632812 0.55664062 C15.71371506 0.80748156 20.32476901 1.25321814 25 2 C25 2.33 25 2.66 25 3 C21.95809137 3.05421223 18.91716001 3.09377548 15.875 3.125 C15.0190625 3.14175781 14.163125 3.15851563 13.28125 3.17578125 C8.43412707 3.21306681 4.55292095 2.89580643 0 1 C0 0.67 0 0.34 0 0 Z " fill="#FF827A" transform="translate(538,274)"/>
<path d="M0 0 C7.7113039 2.12060857 13.61532516 6.14020679 19 12 C19.66 12.66 20.32 13.32 21 14 C17.11951289 14 16.2339625 12.7936793 13.3125 10.3125 C10.10293581 7.65435873 6.93970676 5.22292834 3.375 3.0625 C2.26125 2.381875 1.1475 1.70125 0 1 C0 0.67 0 0.34 0 0 Z " fill="#FF7168" transform="translate(625,298)"/>
<path d="M0 0 C0.99 0.33 1.98 0.66 3 1 C0.02144422 5.00959432 -3.13802234 7.89362667 -7 11 C-7.66 11.66 -8.32 12.32 -9 13 C-9.66 12.34 -10.32 11.68 -11 11 C-10.37351562 10.45730469 -9.74703125 9.91460937 -9.1015625 9.35546875 C-8.28429687 8.64003906 -7.46703125 7.92460937 -6.625 7.1875 C-5.40683594 6.12595703 -5.40683594 6.12595703 -4.1640625 5.04296875 C-1.83816812 3.00018747 -1.83816812 3.00018747 0 0 Z " fill="#FFD3D0" transform="translate(381,341)"/>
<path d="M0 0 C1.21236328 0.01353516 1.21236328 0.01353516 2.44921875 0.02734375 C3.37154297 0.04474609 3.37154297 0.04474609 4.3125 0.0625 C4.3125 1.0525 4.3125 2.0425 4.3125 3.0625 C0.3525 3.0625 -3.6075 3.0625 -7.6875 3.0625 C-7.6875 2.4025 -7.6875 1.7425 -7.6875 1.0625 C-4.80538698 0.10179566 -2.98899956 -0.04331883 0 0 Z " fill="#FFE8E7" transform="translate(572.6875,676.9375)"/>
<path d="M0 0 C-5.13887901 3.32515701 -9.80154611 5.36461493 -16 5 C-15 3 -15 3 -13.00390625 2.18359375 C-12.19824219 1.93738281 -11.39257812 1.69117188 -10.5625 1.4375 C-3.0086865 -0.90260595 -3.0086865 -0.90260595 0 0 Z " fill="#FFE0DE" transform="translate(467,292)"/>
<path d="M0 0 C1.65 0 3.3 0 5 0 C3.99138318 2.60924787 3.33501908 3.79748847 0.90625 5.265625 C-0.28484375 5.75289063 -0.28484375 5.75289063 -1.5 6.25 C-2.2940625 6.58515625 -3.088125 6.9203125 -3.90625 7.265625 C-6 8 -6 8 -8 8 C-7.67 7.01 -7.34 6.02 -7 5 C-5 4.33333333 -3 3.66666667 -1 3 C-0.67 2.01 -0.34 1.02 0 0 Z " fill="#FF7C75" transform="translate(460,288)"/>
<path d="M0 0 C6.31631828 0.40316925 10.64993984 2.71232131 16 6 C15.01 6.495 15.01 6.495 14 7 C11.99074195 6.01873444 9.99242489 5.0150089 8 4 C6.741875 3.649375 5.48375 3.29875 4.1875 2.9375 C3.135625 2.628125 2.08375 2.31875 1 2 C0.67 1.34 0.34 0.68 0 0 Z " fill="#FFA7A1" transform="translate(598,288)"/>
<path d="M0 0 C0 3.80345877 -1.13786331 4.77701015 -3.5 7.6875 C-4.47453125 8.89986328 -4.47453125 8.89986328 -5.46875 10.13671875 C-5.9740625 10.75160156 -6.479375 11.36648438 -7 12 C-8 9 -8 9 -6.875 6.5625 C-4.86407973 3.8142423 -2.74089602 2.00011331 0 0 Z " fill="#FFDDDB" transform="translate(378,363)"/>
<path d="M0 0 C0.66 0.33 1.32 0.66 2 1 C-0.64 3.64 -3.28 6.28 -6 9 C-6.33 7.68 -6.66 6.36 -7 5 C-5.16150909 2.48417034 -2.88689962 1.11750953 0 0 Z " fill="#FF6259" transform="translate(396,321)"/>
<path d="M0 0 C0.66 0.33 1.32 0.66 2 1 C1.54625 1.4125 1.0925 1.825 0.625 2.25 C-1.11586032 3.90608349 -1.11586032 3.90608349 -1.8125 6.125 C-3 8 -3 8 -6.125 8.75 C-7.548125 8.87375 -7.548125 8.87375 -9 9 C-7.6875 7 -7.6875 7 -6 5 C-5.01 5 -4.02 5 -3 5 C-2.690625 4.360625 -2.38125 3.72125 -2.0625 3.0625 C-1 1 -1 1 0 0 Z " fill="#FF665D" transform="translate(410,309)"/>
<path d="M0 0 C0.66 0.33 1.32 0.66 2 1 C1.05016642 2.50539661 0.08988109 4.00420347 -0.875 5.5 C-1.40867187 6.3353125 -1.94234375 7.170625 -2.4921875 8.03125 C-2.98976563 8.6809375 -3.48734375 9.330625 -4 10 C-4.66 10 -5.32 10 -6 10 C-4.6302836 6.00499382 -2.74277578 3.19990508 0 0 Z " fill="#FF675E" transform="translate(363,357)"/>
<path d="M0 0 C1.32 0.33 2.64 0.66 4 1 C3.34 2.32 2.68 3.64 2 5 C0.68 4.67 -0.64 4.34 -2 4 C-2 4.66 -2 5.32 -2 6 C-2.66 5.67 -3.32 5.34 -4 5 C-2.68 3.35 -1.36 1.7 0 0 Z " fill="#FFAAA5" transform="translate(393,326)"/>
<path d="M0 0 C0.66 0 1.32 0 2 0 C1.34 1.98 0.68 3.96 0 6 C-1.98 6 -3.96 6 -6 6 C-4 4 -2 2 0 0 Z " fill="#FFF6F5" transform="translate(370,353)"/>
<path d="M0 0 C1.65 0 3.3 0 5 0 C4.67 1.32 4.34 2.64 4 4 C2.35 4.33 0.7 4.66 -1 5 C-1.33 4.01 -1.66 3.02 -2 2 C-1.34 2 -0.68 2 0 2 C0 1.34 0 0.68 0 0 Z " fill="#FFE3E1" transform="translate(455,288)"/>
<path d="M0 0 C7.42857143 -0.14285714 7.42857143 -0.14285714 11 1 C11 1.66 11 2.32 11 3 C9.54077307 2.88590407 8.08259402 2.75834456 6.625 2.625 C5.40683594 2.52058594 5.40683594 2.52058594 4.1640625 2.4140625 C2 2 2 2 0 0 Z " fill="#FF6056" transform="translate(538,274)"/>
<path d="M0 0 C0 3.58912412 -0.66436554 4.10857029 -3 6.6875 C-3.556875 7.31011719 -4.11375 7.93273437 -4.6875 8.57421875 C-5.120625 9.04472656 -5.55375 9.51523437 -6 10 C-7 8 -7 8 -6.875 6.0625 C-5.63977691 3.15090271 -3.73809484 2.43749979 -1 1 C-0.67 0.67 -0.34 0.34 0 0 Z " fill="#FFD9D6" transform="translate(386,353)"/>
<path d="M0 0 C0.625 1.8125 0.625 1.8125 1 4 C0.01 5.485 0.01 5.485 -1 7 C-1.66 7 -2.32 7 -3 7 C-2.625 4.0625 -2.625 4.0625 -2 1 C-1.34 0.67 -0.68 0.34 0 0 Z " fill="#FFF6F6" transform="translate(730,541)"/>
<path d="M0 0 C0.66 0 1.32 0 2 0 C1.67 2.64 1.34 5.28 1 8 C0.34 8 -0.32 8 -1 8 C-1.04241723 5.66705225 -1.04092937 3.33297433 -1 1 C-0.67 0.67 -0.34 0.34 0 0 Z " fill="#FF736A" transform="translate(746,476)"/>
</svg>
